<?xml version="1.0" standalone="no"?>
<!DOCTYPE svg PUBLIC "-//W3C//DTD SVG 20010904//EN"
 "http://www.w3.org/TR/2001/REC-SVG-20010904/DTD/svg10.dtd">
<svg version="1.0" xmlns="http://www.w3.org/2000/svg"
 width="700.000000pt" height="700.000000pt" viewBox="0 0 700.000000 700.000000"
 preserveAspectRatio="xMidYMid meet">
<metadata>
Created by potrace 1.11, written by Peter Selinger 2001-2013
</metadata>
<g transform="translate(0.000000,700.000000) scale(0.100000,-0.100000)"
fill="#000000" stroke="none">
<path d="M3775 6984 c-27 -8 -58 -16 -68 -19 -37 -9 -136 -68 -184 -110 -78
-69 -112 -121 -237 -372 -136 -273 -168 -349 -206 -497 -38 -150 -42 -195 -45
-449 -1 -120 -5 -221 -9 -224 -4 -4 -12 -8 -19 -9 -128 -20 -430 -155 -593
-265 -40 -27 -77 -49 -82 -49 -4 0 -30 11 -58 24 -64 31 -188 75 -228 82 -17
2 -60 11 -96 19 -67 14 -368 15 -420 1 -14 -4 -35 -9 -48 -12 -64 -13 -197
-61 -277 -100 -519 -250 -934 -851 -1109 -1606 -70 -303 -91 -490 -91 -823 0
-260 10 -397 41 -590 8 -49 17 -103 20 -120 3 -16 9 -46 14 -65 5 -19 12 -49
15 -66 2 -18 21 -87 41 -155 158 -546 429 -985 784 -1270 169 -136 338 -220
554 -276 88 -23 121 -27 261 -27 174 -1 257 12 414 63 98 32 230 96 312 152
l56 38 78 -40 c204 -103 455 -180 669 -206 82 -9 375 -10 456 0 98 11 240 38
305 58 118 35 256 89 348 134 l109 53 56 -38 c130 -85 313 -161 477 -196 117
-24 327 -26 447 -4 431 82 806 371 1096 846 200 326 359 796 407 1199 3 28 7
59 10 70 19 101 28 600 12 755 -10 94 -17 158 -23 190 -2 14 -7 45 -10 70 -21
165 -124 552 -179 675 -7 17 -23 54 -35 84 -34 88 -132 278 -193 377 -50 81
-141 211 -156 224 -3 3 -24 28 -46 55 -109 137 -285 288 -450 387 -124 75
-330 150 -449 164 -28 4 -54 8 -58 10 -8 5 -233 5 -268 0 -14 -2 -45 -7 -70
-10 -75 -11 -221 -56 -299 -92 -41 -19 -78 -34 -83 -34 -5 0 -42 22 -82 49
-150 102 -325 183 -531 248 l-89 28 1 193 c1 175 7 281 18 322 2 8 6 32 9 52
15 97 78 247 251 596 194 391 204 420 169 470 -34 49 -55 53 -332 51 -187 -1
-271 -5 -307 -15z m345 -223 c0 -5 -56 -123 -125 -260 -69 -138 -138 -284
-154 -324 -32 -80 -75 -235 -86 -307 -4 -25 -9 -54 -12 -65 -2 -11 -6 -117 -8
-235 -3 -201 -5 -215 -22 -212 -45 6 -324 8 -378 2 -33 -4 -62 -4 -65 1 -6 9
-4 317 3 386 20 187 61 307 211 609 153 310 187 352 320 393 61 19 316 28 316
12z m-490 -1636 c119 -7 154 -12 260 -36 238 -55 470 -163 673 -315 34 -25
123 -108 197 -184 74 -75 144 -142 156 -148 23 -12 73 -9 102 7 31 17 54 61
54 103 -1 50 -19 75 -146 206 l-60 61 35 15 c137 57 367 80 519 50 350 -67
645 -285 896 -662 76 -113 197 -355 248 -494 37 -99 111 -343 119 -394 3 -16
12 -65 21 -109 23 -118 25 -135 32 -194 3 -30 7 -63 9 -73 10 -48 19 -239 19
-388 0 -196 -13 -385 -34 -510 -5 -30 -12 -73 -15 -95 -12 -80 -57 -271 -92
-384 -118 -391 -305 -722 -543 -962 -346 -349 -763 -466 -1165 -327 -70 24
-215 97 -215 108 0 4 26 28 58 53 78 63 187 167 201 194 25 49 3 129 -43 152
-36 18 -78 21 -105 7 -14 -8 -53 -40 -86 -71 -430 -412 -998 -579 -1575 -464
-320 63 -628 226 -869 458 -92 88 -141 105 -202 66 -48 -31 -64 -109 -32 -155
24 -34 126 -132 196 -187 31 -25 57 -50 57 -54 0 -15 -184 -98 -272 -123 -109
-31 -190 -42 -298 -41 -617 10 -1175 610 -1394 1497 -36 142 -70 333 -81 438
-2 30 -8 84 -11 120 -14 135 -6 565 11 670 2 14 7 48 10 76 3 28 7 59 9 70 2
10 7 39 11 64 8 50 8 47 30 150 123 578 426 1097 796 1362 123 88 298 169 416
193 108 22 283 27 373 12 98 -16 232 -56 228 -68 -2 -4 -37 -43 -79 -87 -105
-110 -121 -135 -121 -184 1 -48 22 -82 64 -104 62 -32 87 -18 237 135 145 149
231 220 367 301 238 144 522 233 789 247 66 3 122 7 123 9 2 1 9 1 15 -1 7 -2
55 -6 107 -10z"/>
<path d="M1850 4189 c-30 -5 -91 -22 -137 -38 -534 -184 -718 -848 -357 -1286
79 -97 132 -136 183 -137 37 0 57 8 140 61 l24 15 -8 -39 c-23 -116 12 -161
144 -185 160 -29 334 -6 486 64 225 104 388 300 450 541 20 75 26 262 12 347
-23 139 -110 306 -221 420 -96 101 -132 109 -234 53 -35 -20 -66 -34 -69 -31
-3 2 0 13 6 24 26 49 7 119 -41 155 -52 38 -251 57 -378 36z m164 -234 c-1 -5
-14 -54 -28 -108 -31 -119 -32 -156 -5 -191 56 -72 97 -66 282 40 168 96 147
96 211 -1 90 -136 115 -319 67 -482 -24 -81 -78 -170 -146 -238 -106 -106
-222 -159 -374 -172 l-74 -6 6 24 c4 13 19 72 34 131 l28 108 -20 36 c-22 40
-60 64 -104 64 -32 0 -41 -4 -220 -108 l-114 -66 -29 35 c-102 120 -150 327
-113 489 53 229 247 414 470 446 22 4 41 7 42 8 9 8 88 -1 87 -9z"/>
<path d="M4919 4196 c-2 -2 -20 -6 -39 -9 -84 -13 -109 -24 -139 -63 -23 -29
-27 -70 -12 -122 5 -17 8 -32 6 -32 -3 0 -33 16 -68 35 -103 57 -136 49 -236
-54 -145 -150 -219 -327 -226 -541 -7 -222 63 -416 209 -577 108 -120 291
-224 435 -248 19 -3 38 -8 43 -11 16 -10 204 -6 268 6 131 24 165 66 145 179
l-7 45 25 -17 c127 -83 166 -82 258 8 361 350 327 935 -70 1237 -80 61 -202
120 -296 143 -62 16 -285 32 -296 21z m235 -246 c190 -42 371 -216 422 -404
22 -80 28 -186 15 -262 -14 -78 -74 -212 -118 -263 l-30 -35 -144 84 c-161 93
-203 104 -256 71 -21 -13 -36 -33 -44 -59 -11 -38 -5 -72 47 -261 7 -24 7 -24
-62 -18 -121 10 -201 36 -293 98 -61 41 -161 143 -161 165 0 7 -3 14 -7 16
-12 5 -60 109 -69 148 -4 19 -9 42 -11 50 -10 45 -9 151 3 213 14 77 77 213
119 260 l25 28 155 -90 c167 -95 184 -100 247 -63 49 29 59 97 29 197 -28 90
-38 131 -35 137 6 9 107 2 168 -12z"/>
<path d="M6150 2372 c-81 -45 -122 -66 -235 -117 -125 -57 -583 -194 -735
-219 -33 -5 -52 -9 -110 -21 -26 -5 -132 -23 -185 -31 -16 -3 -55 -9 -85 -14
-30 -6 -75 -13 -100 -16 -61 -8 -97 -28 -115 -64 -20 -38 -19 -71 3 -152 l19
-66 -81 -22 c-45 -12 -92 -24 -105 -27 -14 -2 -28 -6 -32 -9 -5 -2 -13 15 -19
38 -51 193 -57 206 -99 231 -28 16 -48 16 -289 2 -62 -4 -150 -8 -195 -10
-113 -5 -682 -5 -792 0 -203 9 -250 8 -271 -5 -33 -20 -51 -59 -79 -160 -13
-51 -26 -94 -28 -96 -2 -2 -32 5 -68 16 -35 11 -66 20 -69 20 -3 1 -24 6 -47
11 l-41 11 16 51 c37 121 -1 191 -112 202 -22 2 -72 7 -111 10 -38 4 -77 8
-85 10 -8 1 -40 6 -70 9 -30 4 -67 9 -83 11 -28 5 -126 22 -174 31 -30 6 -166
33 -198 41 -11 2 -31 6 -44 9 -138 29 -473 134 -677 212 -89 35 -140 50 -159
46 -85 -15 -109 -64 -108 -220 1 -251 176 -499 497 -709 97 -63 318 -176 431
-220 182 -72 191 -75 400 -135 99 -28 276 -71 348 -84 15 -3 35 -7 45 -10 9
-3 35 -7 57 -11 22 -3 78 -12 125 -20 47 -7 110 -17 140 -21 30 -4 62 -8 70
-10 8 -1 47 -5 85 -8 39 -4 88 -8 110 -11 22 -2 76 -7 120 -10 44 -3 114 -8
155 -11 105 -7 131 -5 157 11 49 32 56 58 57 198 l1 132 115 0 115 0 1 -132
c1 -141 8 -166 57 -198 27 -18 45 -19 152 -11 44 3 118 8 164 11 46 3 96 7
110 9 14 3 62 7 105 11 43 4 86 8 95 10 9 1 43 6 76 10 32 4 66 8 75 10 8 1
62 10 120 20 393 64 788 183 1090 328 425 203 703 486 747 762 25 149 -19 358
-83 399 -50 34 -83 30 -174 -22z m28 -319 c-39 -295 -403 -570 -1016 -767
-102 -33 -382 -106 -458 -119 -16 -3 -65 -12 -109 -20 -44 -8 -105 -18 -135
-22 -30 -4 -57 -8 -60 -10 -3 -2 -30 -6 -60 -9 -30 -4 -66 -8 -80 -11 -30 -5
-133 -15 -198 -20 -26 -2 -84 -6 -129 -10 l-83 -6 0 126 c0 139 -9 168 -60
199 -24 14 -66 16 -290 16 -352 0 -350 2 -350 -222 l0 -118 -92 5 c-51 3 -107
8 -123 10 -17 2 -60 7 -95 10 -36 3 -81 8 -100 10 -19 3 -66 9 -105 14 -288
39 -623 117 -880 205 -418 143 -725 336 -856 538 -39 61 -76 145 -67 153 2 3
38 -7 79 -21 299 -106 762 -217 1034 -250 22 -3 49 -7 60 -9 11 -2 49 -7 85
-11 36 -3 66 -7 68 -9 1 -1 -4 -22 -11 -46 -25 -84 -6 -145 55 -173 69 -31
492 -138 523 -132 50 10 81 52 105 141 12 44 26 96 32 116 l10 36 76 -5 c43
-3 226 -5 407 -6 289 0 447 4 706 19 l65 4 18 -67 c39 -150 51 -183 79 -210
23 -22 37 -27 75 -26 45 0 258 55 441 113 124 38 144 74 111 202 l-17 67 61 8
c126 16 171 24 301 51 296 61 573 147 845 264 74 31 138 58 141 58 3 1 2 -29
-3 -66z"/>
</g>
</svg>
