<?xml version="1.0" standalone="no"?>
<!DOCTYPE svg PUBLIC "-//W3C//DTD SVG 20010904//EN"
 "http://www.w3.org/TR/2001/REC-SVG-20010904/DTD/svg10.dtd">
<svg version="1.0" xmlns="http://www.w3.org/2000/svg"
 width="70.000000pt" height="70.000000pt" viewBox="0 0 70.000000 70.000000"
 preserveAspectRatio="xMidYMid meet">
<metadata>
Created by potrace 1.11, written by Peter Selinger 2001-2013
</metadata>
<g transform="translate(0.000000,70.000000) scale(0.100000,-0.100000)"
fill="#000000" stroke="none">
<path d="M40 365 l0 -165 30 0 c30 0 30 0 30 59 l0 58 52 5 c65 7 108 48 108
104 0 74 -45 104 -155 104 l-65 0 0 -165z m138 103 c7 -7 12 -27 12 -45 0 -36
-21 -53 -64 -53 -25 0 -26 3 -26 55 l0 55 33 0 c18 0 38 -5 45 -12z"/>
<path d="M354 432 c-41 -26 -58 -70 -52 -133 7 -66 38 -99 100 -106 90 -10
145 50 135 150 -6 66 -38 98 -104 104 -36 3 -56 -1 -79 -15z m107 -49 c22 -26
18 -112 -5 -129 -26 -19 -60 -18 -77 3 -22 26 -18 112 5 129 26 19 60 18 77
-3z"/>
<path d="M604 266 c-3 -8 -4 -25 -2 -38 2 -17 9 -23 28 -23 22 0 25 4 25 35 0
29 -4 36 -23 38 -13 2 -24 -3 -28 -12z"/>
</g>
</svg>
